<mxfile host="Electron" agent="Mozilla/5.0 (Windows NT 10.0; Win64; x64) AppleWebKit/537.36 (KHTML, like Gecko) draw.io/24.7.17 Chrome/128.0.6613.36 Electron/32.0.1 Safari/537.36" version="24.7.17">
  <diagram name="Page-1" id="822b0af5-4adb-64df-f703-e8dfc1f81529">
    <mxGraphModel dx="2100" dy="1242" grid="0" gridSize="10" guides="1" tooltips="1" connect="1" arrows="1" fold="1" page="1" pageScale="1" pageWidth="1100" pageHeight="850" background="none" math="0" shadow="0">
      <root>
        <mxCell id="0" />
        <mxCell id="1" parent="0" />
        <mxCell id="soyHDLQrWCftBUpEwsDa-52" value="" style="rounded=0;whiteSpace=wrap;html=1;fillColor=#485665;strokeColor=#314354;fontColor=#ffffff;strokeWidth=1;perimeterSpacing=0;" vertex="1" parent="1">
          <mxGeometry y="306" width="1100" height="544" as="geometry" />
        </mxCell>
        <mxCell id="soyHDLQrWCftBUpEwsDa-49" value="" style="rounded=0;whiteSpace=wrap;html=1;fillColor=#D4E1F5;strokeColor=#314354;" vertex="1" parent="1">
          <mxGeometry width="553" height="306" as="geometry" />
        </mxCell>
        <mxCell id="soyHDLQrWCftBUpEwsDa-13" style="edgeStyle=orthogonalEdgeStyle;rounded=1;orthogonalLoop=1;jettySize=auto;html=1;entryX=0.5;entryY=0;entryDx=0;entryDy=0;entryPerimeter=0;endArrow=none;endFill=0;strokeWidth=2;strokeColor=#FFCCFF;curved=0;dashed=1;comic=0;snapToPoint=0;fixDash=0;backgroundOutline=0;" edge="1" parent="1" source="soyHDLQrWCftBUpEwsDa-1" target="soyHDLQrWCftBUpEwsDa-7">
          <mxGeometry relative="1" as="geometry">
            <mxPoint x="81.5" y="400" as="targetPoint" />
            <Array as="points">
              <mxPoint x="82" y="580" />
              <mxPoint x="202" y="580" />
            </Array>
          </mxGeometry>
        </mxCell>
        <mxCell id="soyHDLQrWCftBUpEwsDa-14" style="edgeStyle=orthogonalEdgeStyle;rounded=1;orthogonalLoop=1;jettySize=auto;html=1;endArrow=none;endFill=0;strokeWidth=2;strokeColor=#FFCCFF;curved=0;dashed=1;comic=0;snapToPoint=0;fixDash=0;backgroundOutline=0;" edge="1" parent="1" source="soyHDLQrWCftBUpEwsDa-1" target="soyHDLQrWCftBUpEwsDa-10">
          <mxGeometry relative="1" as="geometry">
            <Array as="points">
              <mxPoint x="82" y="580" />
              <mxPoint x="322" y="580" />
            </Array>
          </mxGeometry>
        </mxCell>
        <mxCell id="soyHDLQrWCftBUpEwsDa-15" style="edgeStyle=orthogonalEdgeStyle;rounded=1;orthogonalLoop=1;jettySize=auto;html=1;endArrow=none;endFill=0;strokeWidth=2;strokeColor=#FFCCFF;curved=0;dashed=1;comic=0;snapToPoint=0;fixDash=0;backgroundOutline=0;" edge="1" parent="1" source="soyHDLQrWCftBUpEwsDa-1" target="soyHDLQrWCftBUpEwsDa-11">
          <mxGeometry relative="1" as="geometry">
            <Array as="points">
              <mxPoint x="82" y="580" />
              <mxPoint x="442" y="580" />
            </Array>
          </mxGeometry>
        </mxCell>
        <mxCell id="soyHDLQrWCftBUpEwsDa-23" style="edgeStyle=orthogonalEdgeStyle;rounded=0;orthogonalLoop=1;jettySize=auto;html=1;dashed=1;strokeColor=#E6FFCC;strokeWidth=2;endArrow=none;endFill=0;" edge="1" parent="1" source="soyHDLQrWCftBUpEwsDa-1" target="soyHDLQrWCftBUpEwsDa-6">
          <mxGeometry relative="1" as="geometry">
            <Array as="points">
              <mxPoint x="80" y="445" />
            </Array>
          </mxGeometry>
        </mxCell>
        <mxCell id="soyHDLQrWCftBUpEwsDa-24" style="edgeStyle=orthogonalEdgeStyle;rounded=0;orthogonalLoop=1;jettySize=auto;html=1;entryX=0;entryY=0.5;entryDx=0;entryDy=0;entryPerimeter=0;dashed=1;strokeColor=#E6FFCC;strokeWidth=2;endArrow=none;endFill=0;" edge="1" parent="1" source="soyHDLQrWCftBUpEwsDa-1" target="soyHDLQrWCftBUpEwsDa-3">
          <mxGeometry relative="1" as="geometry">
            <Array as="points">
              <mxPoint x="700" y="445" />
              <mxPoint x="700" y="600" />
            </Array>
          </mxGeometry>
        </mxCell>
        <mxCell id="soyHDLQrWCftBUpEwsDa-1" value="" style="shape=mxgraph.cisco.switches.workgroup_switch;sketch=0;html=1;pointerEvents=1;dashed=0;fillColor=#036897;strokeColor=#ffffff;strokeWidth=2;verticalLabelPosition=bottom;verticalAlign=top;align=center;outlineConnect=0;" vertex="1" parent="1">
          <mxGeometry x="30" y="320" width="101" height="50" as="geometry" />
        </mxCell>
        <mxCell id="soyHDLQrWCftBUpEwsDa-44" value="" style="edgeStyle=orthogonalEdgeStyle;rounded=0;orthogonalLoop=1;jettySize=auto;html=1;" edge="1" parent="1" source="soyHDLQrWCftBUpEwsDa-3" target="soyHDLQrWCftBUpEwsDa-6">
          <mxGeometry relative="1" as="geometry" />
        </mxCell>
        <mxCell id="soyHDLQrWCftBUpEwsDa-3" value="" style="shape=mxgraph.cisco.servers.fileserver;html=1;pointerEvents=1;fillColor=#036897;strokeColor=#ffffff;strokeWidth=2;verticalLabelPosition=bottom;verticalAlign=top;align=center;outlineConnect=0;comic=0;snapToPoint=0;fixDash=0;backgroundOutline=0;" vertex="1" parent="1">
          <mxGeometry x="800" y="560" width="63" height="80" as="geometry" />
        </mxCell>
        <mxCell id="soyHDLQrWCftBUpEwsDa-6" value="" style="shape=mxgraph.cisco.servers.fileserver;sketch=0;html=1;pointerEvents=1;dashed=0;fillColor=#036897;strokeColor=#ffffff;strokeWidth=2;verticalLabelPosition=bottom;verticalAlign=top;align=center;outlineConnect=0;" vertex="1" parent="1">
          <mxGeometry x="800" y="405" width="63" height="80" as="geometry" />
        </mxCell>
        <mxCell id="soyHDLQrWCftBUpEwsDa-7" value="" style="shape=mxgraph.cisco.computers_and_peripherals.workstation;sketch=0;html=1;pointerEvents=1;dashed=0;fillColor=#036897;strokeColor=#ffffff;strokeWidth=2;verticalLabelPosition=bottom;verticalAlign=top;align=center;outlineConnect=0;" vertex="1" parent="1">
          <mxGeometry x="160" y="680" width="83" height="62" as="geometry" />
        </mxCell>
        <mxCell id="soyHDLQrWCftBUpEwsDa-8" value="" style="shape=mxgraph.cisco.computers_and_peripherals.workstation;sketch=0;html=1;pointerEvents=1;dashed=0;fillColor=#036897;strokeColor=#ffffff;strokeWidth=2;verticalLabelPosition=bottom;verticalAlign=top;align=center;outlineConnect=0;" vertex="1" parent="1">
          <mxGeometry x="520" y="680" width="83" height="62" as="geometry" />
        </mxCell>
        <mxCell id="soyHDLQrWCftBUpEwsDa-9" value="" style="shape=mxgraph.cisco.computers_and_peripherals.workstation;sketch=0;html=1;pointerEvents=1;dashed=0;fillColor=#036897;strokeColor=#ffffff;strokeWidth=2;verticalLabelPosition=bottom;verticalAlign=top;align=center;outlineConnect=0;" vertex="1" parent="1">
          <mxGeometry x="40" y="680" width="80" height="62" as="geometry" />
        </mxCell>
        <mxCell id="soyHDLQrWCftBUpEwsDa-10" value="" style="shape=mxgraph.cisco.computers_and_peripherals.workstation;sketch=0;html=1;pointerEvents=1;dashed=0;fillColor=#036897;strokeColor=#ffffff;strokeWidth=2;verticalLabelPosition=bottom;verticalAlign=top;align=center;outlineConnect=0;" vertex="1" parent="1">
          <mxGeometry x="280" y="680" width="83" height="62" as="geometry" />
        </mxCell>
        <mxCell id="soyHDLQrWCftBUpEwsDa-11" value="" style="shape=mxgraph.cisco.computers_and_peripherals.workstation;sketch=0;html=1;pointerEvents=1;dashed=0;fillColor=#036897;strokeColor=#ffffff;strokeWidth=2;verticalLabelPosition=bottom;verticalAlign=top;align=center;outlineConnect=0;" vertex="1" parent="1">
          <mxGeometry x="400" y="680" width="83" height="62" as="geometry" />
        </mxCell>
        <mxCell id="soyHDLQrWCftBUpEwsDa-12" style="edgeStyle=orthogonalEdgeStyle;rounded=0;orthogonalLoop=1;jettySize=auto;html=1;entryX=0.5;entryY=0;entryDx=0;entryDy=0;entryPerimeter=0;endArrow=none;endFill=0;strokeColor=#FFCCFF;strokeWidth=2;startArrow=none;startFill=0;dashed=1;comic=0;snapToPoint=0;fixDash=0;backgroundOutline=0;" edge="1" parent="1" source="soyHDLQrWCftBUpEwsDa-1" target="soyHDLQrWCftBUpEwsDa-9">
          <mxGeometry relative="1" as="geometry" />
        </mxCell>
        <mxCell id="soyHDLQrWCftBUpEwsDa-16" style="edgeStyle=orthogonalEdgeStyle;rounded=1;orthogonalLoop=1;jettySize=auto;html=1;entryX=0.5;entryY=0;entryDx=0;entryDy=0;entryPerimeter=0;strokeWidth=2;strokeColor=#FFCCFF;endArrow=none;endFill=0;curved=0;targetPerimeterSpacing=0;jumpSize=0;dashed=1;comic=0;snapToPoint=0;fixDash=0;backgroundOutline=0;" edge="1" parent="1">
          <mxGeometry relative="1" as="geometry">
            <mxPoint x="81.78692307692287" y="370" as="sourcePoint" />
            <mxPoint x="561.2099999999996" y="680" as="targetPoint" />
            <Array as="points">
              <mxPoint x="81.71000000000001" y="580" />
              <mxPoint x="561.71" y="580" />
            </Array>
          </mxGeometry>
        </mxCell>
        <mxCell id="soyHDLQrWCftBUpEwsDa-25" value="" style="shape=mxgraph.cisco.servers.fileserver;sketch=0;html=1;pointerEvents=1;dashed=0;fillColor=#036897;strokeColor=#ffffff;strokeWidth=2;verticalLabelPosition=bottom;verticalAlign=top;align=center;outlineConnect=0;" vertex="1" parent="1">
          <mxGeometry x="49" y="93" width="63" height="80" as="geometry" />
        </mxCell>
        <mxCell id="soyHDLQrWCftBUpEwsDa-28" value="&lt;font color=&quot;#000000&quot;&gt;&lt;span style=&quot;font-size: 16px;&quot;&gt;&lt;b&gt;&lt;u&gt;Network address&lt;/u&gt;&lt;/b&gt;&lt;/span&gt;&lt;/font&gt;&lt;div&gt;&lt;font color=&quot;#000000&quot;&gt;&lt;span style=&quot;font-size: 16px;&quot;&gt;&lt;b&gt;192.168.1.128 /27&lt;/b&gt;&lt;/span&gt;&lt;/font&gt;&lt;/div&gt;" style="rounded=0;whiteSpace=wrap;html=1;fillColor=#EEEEEE;strokeColor=#36393D;" vertex="1" parent="1">
          <mxGeometry x="900" y="770" width="200" height="80" as="geometry" />
        </mxCell>
        <mxCell id="soyHDLQrWCftBUpEwsDa-30" style="edgeStyle=orthogonalEdgeStyle;rounded=0;orthogonalLoop=1;jettySize=auto;html=1;entryX=0.5;entryY=1;entryDx=0;entryDy=0;entryPerimeter=0;strokeColor=#F06A6A;strokeWidth=2;dashed=1;endArrow=none;endFill=0;" edge="1" parent="1" source="soyHDLQrWCftBUpEwsDa-1" target="soyHDLQrWCftBUpEwsDa-25">
          <mxGeometry relative="1" as="geometry" />
        </mxCell>
        <mxCell id="soyHDLQrWCftBUpEwsDa-31" value="&lt;div&gt;&lt;b&gt;&lt;font color=&quot;#000000&quot;&gt;&lt;u&gt;Windows Server&lt;/u&gt;&lt;/font&gt;&lt;/b&gt;&lt;/div&gt;&lt;b&gt;&lt;font color=&quot;#000000&quot;&gt;dc.hopital.lan&lt;/font&gt;&lt;/b&gt;" style="rounded=1;whiteSpace=wrap;html=1;fillColor=#EEEEEE;strokeColor=#36393D;" vertex="1" parent="1">
          <mxGeometry x="131" y="117.5" width="120" height="60" as="geometry" />
        </mxCell>
        <mxCell id="soyHDLQrWCftBUpEwsDa-34" style="edgeStyle=orthogonalEdgeStyle;rounded=0;orthogonalLoop=1;jettySize=auto;html=1;" edge="1" parent="1" source="soyHDLQrWCftBUpEwsDa-32" target="soyHDLQrWCftBUpEwsDa-33">
          <mxGeometry relative="1" as="geometry" />
        </mxCell>
        <mxCell id="soyHDLQrWCftBUpEwsDa-32" value="&lt;div&gt;&lt;b&gt;&lt;font color=&quot;#000000&quot;&gt;&lt;u&gt;Windows Server&lt;/u&gt;&lt;/font&gt;&lt;/b&gt;&lt;/div&gt;&lt;b&gt;&lt;font color=&quot;#000000&quot;&gt;winServG4.hopital.lan&lt;/font&gt;&lt;/b&gt;" style="rounded=1;whiteSpace=wrap;html=1;fillColor=#EEEEEE;strokeColor=#36393D;" vertex="1" parent="1">
          <mxGeometry x="900" y="415" width="160" height="60" as="geometry" />
        </mxCell>
        <mxCell id="soyHDLQrWCftBUpEwsDa-33" value="&lt;div&gt;&lt;b&gt;&lt;font color=&quot;#000000&quot;&gt;&lt;u&gt;Linux Server&lt;/u&gt;&lt;/font&gt;&lt;/b&gt;&lt;/div&gt;&lt;b&gt;&lt;font color=&quot;#000000&quot;&gt;reabilitation.hopital.lan&lt;/font&gt;&lt;/b&gt;" style="rounded=1;whiteSpace=wrap;html=1;fillColor=#EEEEEE;strokeColor=#36393D;" vertex="1" parent="1">
          <mxGeometry x="900" y="570" width="160" height="60" as="geometry" />
        </mxCell>
        <mxCell id="soyHDLQrWCftBUpEwsDa-35" value="&lt;div&gt;&lt;b style=&quot;&quot;&gt;&lt;font color=&quot;#ff8000&quot;&gt;Dev 1&lt;/font&gt;&lt;/b&gt;&lt;/div&gt;&lt;font color=&quot;#000000&quot;&gt;&lt;b&gt;192.168.1.131&lt;/b&gt;&lt;/font&gt;" style="rounded=1;whiteSpace=wrap;html=1;fillColor=#eeeeee;strokeColor=#36393d;" vertex="1" parent="1">
          <mxGeometry x="20" y="780" width="100" height="50" as="geometry" />
        </mxCell>
        <mxCell id="soyHDLQrWCftBUpEwsDa-36" value="&lt;div&gt;&lt;b style=&quot;&quot;&gt;&lt;font color=&quot;#ff8000&quot;&gt;Dev 2&lt;/font&gt;&lt;/b&gt;&lt;/div&gt;&lt;div&gt;&lt;b style=&quot;color: rgb(0, 0, 0);&quot;&gt;192.168.1.132&lt;/b&gt;&lt;br&gt;&lt;/div&gt;" style="rounded=1;whiteSpace=wrap;html=1;fillColor=#eeeeee;strokeColor=#36393d;" vertex="1" parent="1">
          <mxGeometry x="141" y="780" width="100" height="50" as="geometry" />
        </mxCell>
        <mxCell id="soyHDLQrWCftBUpEwsDa-37" value="&lt;div&gt;&lt;b style=&quot;&quot;&gt;&lt;font color=&quot;#007fff&quot;&gt;Sec 1&lt;/font&gt;&lt;/b&gt;&lt;/div&gt;&lt;div&gt;&lt;b style=&quot;color: rgb(0, 0, 0);&quot;&gt;192.168.1.133&lt;/b&gt;&lt;br&gt;&lt;/div&gt;" style="rounded=1;whiteSpace=wrap;html=1;fillColor=#eeeeee;strokeColor=#36393d;" vertex="1" parent="1">
          <mxGeometry x="261" y="780" width="100" height="50" as="geometry" />
        </mxCell>
        <mxCell id="soyHDLQrWCftBUpEwsDa-38" value="&lt;div&gt;&lt;b style=&quot;&quot;&gt;&lt;font color=&quot;#007fff&quot;&gt;Sec 2&lt;/font&gt;&lt;/b&gt;&lt;/div&gt;&lt;div&gt;&lt;b style=&quot;color: rgb(0, 0, 0);&quot;&gt;192.168.1.134&lt;/b&gt;&lt;br&gt;&lt;/div&gt;" style="rounded=1;whiteSpace=wrap;html=1;fillColor=#eeeeee;strokeColor=#36393d;" vertex="1" parent="1">
          <mxGeometry x="383" y="780" width="100" height="50" as="geometry" />
        </mxCell>
        <mxCell id="soyHDLQrWCftBUpEwsDa-39" value="&lt;div&gt;&lt;b style=&quot;&quot;&gt;&lt;font color=&quot;#007fff&quot;&gt;Sec 3&lt;/font&gt;&lt;/b&gt;&lt;/div&gt;&lt;div&gt;&lt;b style=&quot;color: rgb(0, 0, 0);&quot;&gt;192.168.1.135&lt;/b&gt;&lt;br&gt;&lt;/div&gt;" style="rounded=1;whiteSpace=wrap;html=1;fillColor=#EEEEEE;strokeColor=#36393D;" vertex="1" parent="1">
          <mxGeometry x="503" y="780" width="100" height="50" as="geometry" />
        </mxCell>
        <mxCell id="soyHDLQrWCftBUpEwsDa-40" value="&lt;div&gt;&lt;font color=&quot;#007fff&quot;&gt;&lt;b&gt;VLAN 40 Interface&lt;/b&gt;&lt;/font&gt;&lt;/div&gt;&lt;div&gt;&lt;b style=&quot;color: rgb(0, 0, 0); background-color: initial;&quot;&gt;192.168.1.159&lt;/b&gt;&lt;/div&gt;" style="rounded=1;whiteSpace=wrap;html=1;fillColor=#eeeeee;strokeColor=#36393d;" vertex="1" parent="1">
          <mxGeometry x="150.5" y="320" width="129.5" height="57.5" as="geometry" />
        </mxCell>
        <mxCell id="soyHDLQrWCftBUpEwsDa-41" value="&lt;b style=&quot;&quot;&gt;&lt;font color=&quot;#f01d55&quot;&gt;&lt;u&gt;Exclusion Address&lt;/u&gt;&lt;/font&gt;&lt;/b&gt;&lt;div&gt;&lt;b style=&quot;&quot;&gt;&lt;font color=&quot;#f01d55&quot;&gt;&lt;u&gt;&lt;br&gt;&lt;/u&gt;&lt;/font&gt;&lt;/b&gt;&lt;/div&gt;&lt;div&gt;&lt;font color=&quot;#000000&quot;&gt;&lt;b&gt;192.168.1.129&lt;/b&gt;&lt;/font&gt;&lt;/div&gt;&lt;div&gt;&lt;font color=&quot;#000000&quot;&gt;&lt;b&gt;-&lt;/b&gt;&lt;/font&gt;&lt;/div&gt;&lt;div&gt;&lt;font color=&quot;#000000&quot;&gt;&lt;b&gt;192.168.1.140&lt;/b&gt;&lt;/font&gt;&lt;/div&gt;" style="rounded=1;whiteSpace=wrap;html=1;fillColor=#EEEEEE;strokeColor=#36393D;" vertex="1" parent="1">
          <mxGeometry x="670" y="745" width="140" height="85" as="geometry" />
        </mxCell>
        <mxCell id="soyHDLQrWCftBUpEwsDa-42" value="&lt;div&gt;&lt;b style=&quot;&quot;&gt;&lt;font color=&quot;#000000&quot;&gt;&lt;u&gt;Windows Server&lt;/u&gt;&lt;/font&gt;&lt;/b&gt;&lt;/div&gt;&lt;div&gt;&lt;b style=&quot;color: rgb(0, 0, 0); background-color: initial;&quot;&gt;192.168.1.129&lt;/b&gt;&lt;/div&gt;" style="rounded=1;whiteSpace=wrap;html=1;fillColor=#EEEEEE;strokeColor=#36393D;" vertex="1" parent="1">
          <mxGeometry x="690" y="377.5" width="100" height="50" as="geometry" />
        </mxCell>
        <mxCell id="soyHDLQrWCftBUpEwsDa-43" value="&lt;div&gt;&lt;b style=&quot;&quot;&gt;&lt;font color=&quot;#000000&quot;&gt;&lt;u&gt;Linux&lt;/u&gt;&lt;/font&gt;&lt;/b&gt;&lt;/div&gt;&lt;div&gt;&lt;b style=&quot;color: rgb(0, 0, 0); background-color: initial;&quot;&gt;192.168.1.130&lt;/b&gt;&lt;/div&gt;" style="rounded=1;whiteSpace=wrap;html=1;fillColor=#EEEEEE;strokeColor=#36393D;" vertex="1" parent="1">
          <mxGeometry x="690" y="610" width="100" height="50" as="geometry" />
        </mxCell>
        <mxCell id="soyHDLQrWCftBUpEwsDa-45" value="&lt;font color=&quot;#000000&quot;&gt;&lt;span style=&quot;font-size: 16px;&quot;&gt;&lt;b&gt;&lt;u&gt;Network&lt;/u&gt;&lt;/b&gt;&lt;/span&gt;&lt;/font&gt;&lt;div&gt;&lt;font color=&quot;#000000&quot;&gt;&lt;span style=&quot;font-size: 16px;&quot;&gt;&lt;b&gt;192.168.1.129&lt;/b&gt;&lt;/span&gt;&lt;/font&gt;&lt;/div&gt;&lt;div&gt;&lt;font color=&quot;#000000&quot;&gt;&lt;span style=&quot;font-size: 16px;&quot;&gt;&lt;b&gt;192.168.1.159&lt;/b&gt;&lt;/span&gt;&lt;/font&gt;&lt;/div&gt;" style="rounded=0;whiteSpace=wrap;html=1;fillColor=#EEEEEE;strokeColor=#36393D;" vertex="1" parent="1">
          <mxGeometry x="900" y="690" width="200" height="80" as="geometry" />
        </mxCell>
        <mxCell id="soyHDLQrWCftBUpEwsDa-46" value="" style="shape=mxgraph.cisco.servers.fileserver;sketch=0;html=1;pointerEvents=1;dashed=0;fillColor=#036897;strokeColor=#ffffff;strokeWidth=2;verticalLabelPosition=bottom;verticalAlign=top;align=center;outlineConnect=0;" vertex="1" parent="1">
          <mxGeometry x="305" y="93" width="63" height="80" as="geometry" />
        </mxCell>
        <mxCell id="soyHDLQrWCftBUpEwsDa-47" value="&lt;font color=&quot;#000000&quot;&gt;&lt;b&gt;&lt;u&gt;Linux&lt;/u&gt;&lt;/b&gt;&lt;/font&gt;&lt;div&gt;&lt;font color=&quot;#000000&quot;&gt;&lt;b&gt;web.hopital.lan&lt;/b&gt;&lt;/font&gt;&lt;/div&gt;" style="rounded=1;whiteSpace=wrap;html=1;fillColor=#EEEEEE;strokeColor=#36393D;" vertex="1" parent="1">
          <mxGeometry x="404" y="117.5" width="120" height="60" as="geometry" />
        </mxCell>
        <mxCell id="soyHDLQrWCftBUpEwsDa-48" style="edgeStyle=orthogonalEdgeStyle;rounded=0;orthogonalLoop=1;jettySize=auto;html=1;entryX=0.5;entryY=0;entryDx=0;entryDy=0;entryPerimeter=0;strokeColor=#F01D55;dashed=1;strokeWidth=2;endArrow=none;endFill=0;" edge="1" parent="1" source="soyHDLQrWCftBUpEwsDa-46" target="soyHDLQrWCftBUpEwsDa-1">
          <mxGeometry relative="1" as="geometry">
            <Array as="points">
              <mxPoint x="332" y="230" />
              <mxPoint x="80" y="230" />
            </Array>
          </mxGeometry>
        </mxCell>
        <mxCell id="soyHDLQrWCftBUpEwsDa-50" value="&lt;b&gt;&lt;font style=&quot;font-size: 19px;&quot; color=&quot;#000000&quot;&gt;&lt;u&gt;GLOBAL&lt;/u&gt;&lt;/font&gt;&lt;/b&gt;" style="rounded=0;whiteSpace=wrap;html=1;fillColor=#D0A5C0;strokeColor=#A50040;fontColor=#ffffff;" vertex="1" parent="1">
          <mxGeometry width="120" height="60" as="geometry" />
        </mxCell>
        <mxCell id="soyHDLQrWCftBUpEwsDa-54" value="&lt;b&gt;&lt;font style=&quot;font-size: 19px;&quot; color=&quot;#000000&quot;&gt;&lt;u&gt;VLAN 40&lt;/u&gt;&lt;/font&gt;&lt;/b&gt;" style="rounded=0;whiteSpace=wrap;html=1;fillColor=#D0A5C0;strokeColor=#A50040;fontColor=#ffffff;" vertex="1" parent="1">
          <mxGeometry x="980" y="306" width="120" height="60" as="geometry" />
        </mxCell>
      </root>
    </mxGraphModel>
  </diagram>
</mxfile>
